<?xml version="1.0" standalone="no"?><!DOCTYPE svg PUBLIC "-//W3C//DTD SVG 1.1//EN" "http://www.w3.org/Graphics/SVG/1.1/DTD/svg11.dtd"><svg t="1620453741404" class="icon" viewBox="0 0 1024 1024" version="1.1" xmlns="http://www.w3.org/2000/svg" p-id="14602" xmlns:xlink="http://www.w3.org/1999/xlink" width="64" height="64"><defs><style type="text/css"></style></defs><path d="M511.5904 236.296192c-38.088704 0-68.9664-30.877696-68.9664-68.9664s30.877696-68.9664 68.9664-68.9664 68.9664 30.877696 68.9664 68.9664-30.877696 68.9664-68.9664 68.9664z" fill="#ECF4F7" p-id="14603"></path><path d="M765.360128 765.37856l7.82336-6.817792a16.398336 16.398336 0 0 0 5.623808-12.361728v-33.429504H245.192704v33.429504a16.39424 16.39424 0 0 0 5.623808 12.361728l7.82336 6.817792a44.3904 44.3904 0 0 1 15.222784 33.462272V819.2h476.274688v-20.359168a44.3904 44.3904 0 0 1 15.222784-33.462272z" fill="#AAB1BA" p-id="14604"></path><path d="M772.550656 167.329792h-103.872512v8.286208a10.97728 10.97728 0 0 1-10.979328 10.979328h-20.107264c-3.155968 20.813824-11.358208 39.962624-23.300096 56.190976l14.237696 14.237696a10.97728 10.97728 0 0 1 0 15.527936l-11.718656 11.718656a10.97728 10.97728 0 0 1-15.527936 0l-14.237696-14.237696c-16.228352 11.941888-35.377152 20.144128-56.188928 23.300096v20.107264a10.97728 10.97728 0 0 1-10.979328 10.979328h-16.572416a10.97728 10.97728 0 0 1-10.979328-10.979328v-20.107264c-20.813824-3.155968-39.962624-11.358208-56.190976-23.300096l-14.235648 14.237696a10.97728 10.97728 0 0 1-15.527936 0l-11.718656-11.718656a10.97728 10.97728 0 0 1 0-15.527936l14.237696-14.237696c-11.941888-16.228352-20.144128-35.377152-23.300096-56.190976h-19.286016a10.97728 10.97728 0 0 1-10.979328-10.979328v-8.286208h-103.872512c-18.683904 0-33.828864 15.147008-33.828864 33.830912v408.506368c15.228928 0 27.574272 12.345344 27.574272 27.574272v75.532288h533.612544v-75.532288c0-15.228928 12.345344-27.574272 27.574272-27.574272V201.158656c-0.004096-18.683904-15.149056-33.828864-33.83296-33.828864z" fill="#83E1E5" p-id="14605"></path><path d="M637.591552 148.064256a126.7712 126.7712 0 0 0-23.300096-56.188928l14.237696-14.235648a10.97728 10.97728 0 0 0 0-15.527936l-11.718656-11.718656a10.97728 10.97728 0 0 0-15.527936 0l-14.237696 14.235648c-16.228352-11.941888-35.377152-20.144128-56.188928-23.300096v-20.107264a10.97728 10.97728 0 0 0-10.979328-10.979328h-16.572416a10.97728 10.97728 0 0 0-10.979328 10.979328v20.107264a126.7712 126.7712 0 0 0-56.188928 23.300096l-14.237696-14.235648a10.97728 10.97728 0 0 0-15.527936 0l-11.718656 11.718656a10.97728 10.97728 0 0 0 0 15.527936l14.237696 14.235648c-11.941888 16.228352-20.144128 35.377152-23.300096 56.188928h-19.286016a10.97728 10.97728 0 0 0-10.979328 10.979328v16.572416a10.97728 10.97728 0 0 0 10.979328 10.979328h19.286016a126.7712 126.7712 0 0 0 23.300096 56.188928l-14.237696 14.237696a10.97728 10.97728 0 0 0 0 15.527936l11.718656 11.718656a10.97728 10.97728 0 0 0 15.527936 0l14.237696-14.237696c16.228352 11.941888 35.377152 20.144128 56.188928 23.300096v20.107264a10.97728 10.97728 0 0 0 10.979328 10.979328h16.572416a10.97728 10.97728 0 0 0 10.979328-10.979328v-20.107264a126.7712 126.7712 0 0 0 56.188928-23.300096l14.237696 14.237696a10.97728 10.97728 0 0 0 15.527936 0l11.718656-11.718656a10.97728 10.97728 0 0 0 0-15.527936l-14.237696-14.237696c11.941888-16.228352 20.144128-35.377152 23.300096-56.188928h20.107264a10.97728 10.97728 0 0 0 10.979328-10.979328v-16.572416a10.97728 10.97728 0 0 0-10.979328-10.979328h-20.107264zM511.5904 236.296192c-38.088704 0-68.9664-30.877696-68.9664-68.9664s30.877696-68.9664 68.9664-68.9664 68.9664 30.877696 68.9664 68.9664-30.877696 68.9664-68.9664 68.9664zM806.37952 609.665024c-15.228928 0-27.574272 12.345344-27.574272 27.574272v108.959744a16.398336 16.398336 0 0 1-5.623808 12.361728l-7.82336 6.817792a44.3904 44.3904 0 0 0-15.222784 33.462272v143.364096h105.09312l39.94624-115.542016a262.033408 262.033408 0 0 0 2.019328-165.16096L844.8 497.03936a19.67104 19.67104 0 0 0-18.745344-13.70112c-10.86464 0-19.673088 8.808448-19.673088 19.673088v106.653696z" fill="#FDDF7F" p-id="14606"></path><path d="M750.137344 942.204928h105.09312V1013.76h-105.09312z" fill="#AAB1BA" p-id="14607"></path><path d="M217.62048 609.665024c15.228928 0 27.574272 12.345344 27.574272 27.574272v108.959744a16.398336 16.398336 0 0 0 5.623808 12.361728l7.82336 6.817792a44.3904 44.3904 0 0 1 15.222784 33.462272v143.364096H168.769536l-39.94624-115.542016a262.033408 262.033408 0 0 1-2.019328-165.16096L179.2 497.03936a19.67104 19.67104 0 0 1 18.745344-13.70112c10.86464 0 19.673088 8.808448 19.673088 19.673088v106.653696z" fill="#FDDF7F" p-id="14608"></path><path d="M168.769536 942.204928h105.09312V1013.76H168.769536z" fill="#AAB1BA" p-id="14609"></path><path d="M511.5904 88.121344c-43.675648 0-79.208448 35.5328-79.208448 79.2064 0 43.675648 35.5328 79.208448 79.208448 79.208448 43.6736 0 79.2064-35.5328 79.2064-79.208448 0-43.6736-35.5328-79.2064-79.2064-79.2064z m0 137.934848c-32.382976 0-58.728448-26.345472-58.728448-58.728448s26.345472-58.7264 58.728448-58.7264 58.7264 26.343424 58.7264 58.7264-26.345472 58.728448-58.7264 58.728448z m-94.08512 158.216192c-5.656576 0-10.24-4.583424-10.24-10.24s4.583424-10.24 10.24-10.24h188.987392c5.656576 0 10.24 4.583424 10.24 10.24s-4.583424 10.24-10.24 10.24H417.50528z m-52.96128 0c-5.656576 0-10.24-4.583424-10.24-10.24s4.583424-10.24 10.24-10.24h9.783296c5.656576 0 10.24 4.583424 10.24 10.24s-4.583424 10.24-10.24 10.24H364.544z m285.128704 0c-5.656576 0-10.24-4.583424-10.24-10.24s4.583424-10.24 10.24-10.24H659.456c5.656576 0 10.24 4.583424 10.24 10.24s-4.583424 10.24-10.24 10.24h-9.783296z m167.237632 593.709056a10.24 10.24 0 0 1-10.24 10.24h-7.972864c-5.656576 0-10.24-4.583424-10.24-10.24s4.583424-10.24 10.24-10.24h7.972864a10.24 10.24 0 0 1 10.24 10.24zM207.38048 355.65568v-8.495104c0-5.656576 4.583424-10.24 10.24-10.24s10.24 4.583424 10.24 10.24v8.495104c0 5.656576-4.583424 10.24-10.24 10.24s-10.24-4.583424-10.24-10.24z m28.162048 622.32576a10.24 10.24 0 0 1-10.24 10.24h-7.972864c-5.656576 0-10.24-4.583424-10.24-10.24s4.583424-10.24 10.24-10.24h7.972864a10.24 10.24 0 0 1 10.24 10.24z m-7.7824-899.414016a10.24 10.24 0 0 1 10.24-10.24h13.334528v-13.336576c0-5.656576 4.583424-10.24 10.24-10.24s10.24 4.583424 10.24 10.24v13.336576h13.334528c5.656576 0 10.24 4.583424 10.24 10.24s-4.583424 10.24-10.24 10.24h-13.334528v13.334528c0 5.656576-4.583424 10.24-10.24 10.24s-10.24-4.583424-10.24-10.24v-13.334528h-13.334528a10.24 10.24 0 0 1-10.24-10.24z m620.013568 279.150592a10.24 10.24 0 0 1 10.24-10.24h13.334528v-13.336576c0-5.656576 4.583424-10.24 10.24-10.24s10.24 4.583424 10.24 10.24v13.336576h13.334528c5.656576 0 10.24 4.583424 10.24 10.24s-4.583424 10.24-10.24 10.24h-13.334528v13.334528c0 5.656576-4.583424 10.24-10.24 10.24s-10.24-4.583424-10.24-10.24v-13.334528h-13.334528a10.24 10.24 0 0 1-10.24-10.24zM33.792 1013.76a10.24 10.24 0 0 1-10.24 10.24h-12.288c-5.656576 0-10.24-4.583424-10.24-10.24s4.583424-10.24 10.24-10.24h12.288a10.24 10.24 0 0 1 10.24 10.24z m989.184 0a10.24 10.24 0 0 1-10.24 10.24h-12.288c-5.656576 0-10.24-4.583424-10.24-10.24s4.583424-10.24 10.24-10.24h12.288a10.24 10.24 0 0 1 10.24 10.24z m-57.344-10.24h-88.82176a11.352064 11.352064 0 0 1-11.339776-11.339776v-48.254976l39.38304-113.917952c19.054592-55.107584 19.800064-116.054016 2.097152-171.614208l-52.396032-164.462592a29.810688 29.810688 0 0 0-28.502016-20.832256 29.71648 29.71648 0 0 0-9.433088 1.548288V201.160704c0-24.29952-19.767296-44.070912-44.068864-44.070912h-93.732864c-0.989184-10.786816-10.080256-19.265536-21.121024-19.265536h-11.597824a137.87136 137.87136 0 0 0-18.552832-44.726272l8.22272-8.220672c8.269824-8.27392 8.269824-21.733376-0.002048-30.009344l-11.720704-11.716608c-8.269824-8.27392-21.731328-8.278016-30.005248-0.002048l-8.220672 8.220672a137.998336 137.998336 0 0 0-44.726272-18.552832v-11.597824C541.095936 9.519104 531.576832 0 519.876608 0h-16.572416c-11.700224 0-21.219328 9.519104-21.219328 21.219328v11.597824a137.908224 137.908224 0 0 0-44.726272 18.552832l-8.220672-8.218624c-8.271872-8.275968-21.735424-8.275968-30.007296 0l-11.718656 11.718656c-8.27392 8.271872-8.27392 21.735424 0 30.007296l8.218624 8.220672a137.998336 137.998336 0 0 0-18.552832 44.726272h-10.776576c-11.040768 0-20.13184 8.47872-21.121024 19.265536h-93.730816c-24.29952 0-44.070912 19.769344-44.070912 44.070912v105.693184c0 5.656576 4.583424 10.24 10.24 10.24s10.24-4.583424 10.24-10.24V201.160704c0-13.008896 10.582016-23.590912 23.590912-23.590912h93.722624c0.002048 0.034816 0.01024 0.067584 0.014336 0.100352 0.028672 0.290816 0.079872 0.57344 0.120832 0.86016 0.055296 0.401408 0.106496 0.802816 0.182272 1.193984 0.057344 0.292864 0.137216 0.577536 0.206848 0.866304 0.090112 0.374784 0.178176 0.751616 0.288768 1.118208 0.086016 0.28672 0.190464 0.565248 0.288768 0.847872 0.124928 0.3584 0.247808 0.714752 0.38912 1.062912 0.11264 0.27648 0.239616 0.54272 0.364544 0.813056 0.155648 0.339968 0.313344 0.67584 0.485376 1.005568 0.139264 0.264192 0.288768 0.520192 0.436224 0.776192 0.186368 0.319488 0.372736 0.63488 0.575488 0.944128 0.161792 0.249856 0.333824 0.49152 0.505856 0.733184a19.703808 19.703808 0 0 0 1.226752 1.562624 21.331968 21.331968 0 0 0 3.743744 3.414016c0.239616 0.172032 0.477184 0.342016 0.724992 0.503808 0.311296 0.202752 0.630784 0.393216 0.954368 0.579584 0.253952 0.147456 0.505856 0.29696 0.765952 0.434176 0.333824 0.176128 0.677888 0.333824 1.021952 0.493568 0.264192 0.120832 0.524288 0.247808 0.794624 0.360448 0.3584 0.147456 0.72704 0.274432 1.09568 0.401408 0.270336 0.094208 0.534528 0.196608 0.80896 0.278528 0.391168 0.118784 0.792576 0.210944 1.193984 0.3072 0.262144 0.063488 0.520192 0.137216 0.786432 0.190464 0.448512 0.090112 0.907264 0.149504 1.366016 0.208896 0.229376 0.03072 0.452608 0.075776 0.684032 0.098304 0.694272 0.069632 1.396736 0.106496 2.107392 0.106496h10.776576a137.936896 137.936896 0 0 0 18.552832 44.72832l-8.218624 8.220672a21.102592 21.102592 0 0 0-5.332992 8.96c-2.134016 7.2192-0.356352 15.36 5.330944 21.047296l11.720704 11.722752a21.018624 21.018624 0 0 0 5.951488 4.15744 21.282816 21.282816 0 0 0 24.057856-4.159488l8.218624-8.220672a137.998336 137.998336 0 0 0 44.726272 18.552832v11.597824c0 11.700224 9.519104 21.219328 21.219328 21.219328h16.572416c11.700224 0 21.219328-9.519104 21.219328-21.219328v-11.597824a137.250816 137.250816 0 0 0 17.496064-5.083136 138.100736 138.100736 0 0 0 27.22816-13.467648l8.220672 8.220672c0.290816 0.288768 0.600064 0.544768 0.903168 0.815104 0.227328 0.202752 0.444416 0.421888 0.677888 0.612352 0.180224 0.147456 0.370688 0.272384 0.555008 0.411648 0.385024 0.29696 0.770048 0.59392 1.173504 0.862208 0.07168 0.047104 0.147456 0.086016 0.219136 0.131072a21.067776 21.067776 0 0 0 11.474944 3.3792c4.15744 0 8.128512-1.19808 11.532288-3.411968 0.053248-0.032768 0.106496-0.06144 0.159744-0.096256 0.425984-0.282624 0.833536-0.595968 1.23904-0.91136 0.161792-0.124928 0.331776-0.233472 0.489472-0.364544 0.256-0.208896 0.49152-0.446464 0.739328-0.667648 0.282624-0.253952 0.57344-0.49152 0.845824-0.763904l11.716608-11.720704c8.27392-8.271872 8.27392-21.733376 0-30.005248l-8.220672-8.22272a137.95328 137.95328 0 0 0 9.046016-16.533504 137.60512 137.60512 0 0 0 9.508864-28.192768h11.597824c0.712704 0 1.415168-0.038912 2.10944-0.106496 0.219136-0.02048 0.43008-0.065536 0.647168-0.094208 0.47104-0.06144 0.944128-0.12288 1.404928-0.21504 0.253952-0.0512 0.499712-0.12288 0.749568-0.182272 0.413696-0.098304 0.82944-0.19456 1.232896-0.31744 0.262144-0.079872 0.516096-0.178176 0.774144-0.26624 0.380928-0.131072 0.759808-0.262144 1.130496-0.413696 0.258048-0.106496 0.509952-0.229376 0.763904-0.346112 0.354304-0.16384 0.708608-0.325632 1.05472-0.507904 0.249856-0.131072 0.49152-0.27648 0.735232-0.417792 0.333824-0.192512 0.663552-0.38912 0.98304-0.598016 0.237568-0.155648 0.468992-0.319488 0.698368-0.485376 0.309248-0.221184 0.616448-0.446464 0.913408-0.681984a22.646784 22.646784 0 0 0 2.0992-1.921024 20.783104 20.783104 0 0 0 1.31072-1.497088c0.233472-0.292864 0.454656-0.59392 0.671744-0.897024 0.167936-0.237568 0.335872-0.473088 0.493568-0.718848 0.2048-0.313344 0.395264-0.63488 0.58368-0.960512 0.145408-0.251904 0.292864-0.503808 0.428032-0.761856 0.17408-0.331776 0.333824-0.673792 0.489472-1.015808 0.12288-0.268288 0.249856-0.534528 0.362496-0.80896 0.14336-0.34816 0.26624-0.70656 0.391168-1.067008 0.098304-0.280576 0.200704-0.557056 0.28672-0.841728 0.110592-0.36864 0.198656-0.74752 0.288768-1.124352 0.069632-0.28672 0.147456-0.571392 0.2048-0.862208 0.077824-0.393216 0.126976-0.794624 0.182272-1.193984 0.038912-0.28672 0.09216-0.569344 0.120832-0.86016 0.002048-0.034816 0.01024-0.067584 0.014336-0.100352h93.724672c13.006848 0 23.588864 10.582016 23.588864 23.590912v399.675392c-15.89248 4.476928-27.574272 19.101696-27.574272 36.405248v65.29024H255.434752v-65.29024c0-17.303552-11.681792-31.930368-27.574272-36.405248V393.216c0-5.656576-4.583424-10.24-10.24-10.24s-10.24 4.583424-10.24 10.24v81.430528a29.72672 29.72672 0 0 0-9.433088-1.548288 29.810688 29.810688 0 0 0-28.502016 20.832256L117.047296 658.39104c-17.702912 55.560192-16.955392 116.506624 2.097152 171.614208l39.38304 113.917952v48.254976a11.352064 11.352064 0 0 1-11.339776 11.339776H58.368c-5.656576 0-10.24 4.583424-10.24 10.24s4.583424 10.24 10.24 10.24h88.82176c17.545216 0 31.819776-14.27456 31.819776-31.819776V952.44288h84.611072V1013.76c0 5.656576 4.583424 10.24 10.24 10.24s10.24-4.583424 10.24-10.24v-184.32h455.796736v184.32c0 5.656576 4.583424 10.24 10.24 10.24s10.24-4.583424 10.24-10.24v-61.315072h84.611072v39.735296c0 17.545216 14.27456 31.819776 31.819776 31.819776h88.82176c5.656576 0 10.24-4.583424 10.24-10.24s-4.581376-10.24-10.237952-10.24zM637.591552 176.35328a10.24 10.24 0 0 0-10.125312 8.704c-2.818048 18.579456-10.225664 36.442112-21.424128 51.656704a10.24 10.24 0 0 0 1.007616 13.309952l14.237696 14.237696a0.73728 0.73728 0 0 1-0.002048 1.046528l-11.720704 11.718656-0.004096 0.004096a0.741376 0.741376 0 0 1-1.028096 0.002048l-0.01024-0.008192-14.237696-14.235648a10.252288 10.252288 0 0 0-13.309952-1.007616c-15.214592 11.198464-33.0752 18.60608-51.654656 21.424128a10.24 10.24 0 0 0-8.704 10.123264v20.107264a0.739328 0.739328 0 0 1-0.739328 0.739328h-16.572416a0.739328 0.739328 0 0 1-0.739328-0.739328v-20.107264a10.24 10.24 0 0 0-8.704-10.123264c-18.577408-2.818048-36.440064-10.225664-51.656704-21.424128a10.215424 10.215424 0 0 0-1.521664-0.917504c-0.159744-0.079872-0.325632-0.131072-0.487424-0.200704a10.0864 10.0864 0 0 0-1.130496-0.43008c-0.198656-0.059392-0.39936-0.096256-0.600064-0.14336a10.215424 10.215424 0 0 0-1.079296-0.202752c-0.212992-0.026624-0.425984-0.036864-0.643072-0.049152-0.200704-0.012288-0.403456-0.047104-0.60416-0.047104-0.124928 0-0.247808 0.03072-0.372736 0.036864a10.059776 10.059776 0 0 0-1.052672 0.1024c-0.272384 0.038912-0.54272 0.073728-0.811008 0.13312-0.362496 0.08192-0.712704 0.196608-1.06496 0.31744-0.24576 0.083968-0.493568 0.1536-0.733184 0.256a10.60864 10.60864 0 0 0-1.118208 0.589824c-0.188416 0.108544-0.382976 0.196608-0.565248 0.319488a10.19904 10.19904 0 0 0-1.527808 1.247232l-14.2336 14.235648a0.743424 0.743424 0 0 1-1.048576 0l-11.718656-11.718656a0.73728 0.73728 0 0 1 0.002048-1.046528l14.235648-14.237696a10.24 10.24 0 0 0 1.005568-13.309952c-11.200512-15.218688-18.608128-33.079296-21.424128-51.656704a10.24 10.24 0 0 0-10.123264-8.704h-19.286016a0.739328 0.739328 0 0 1-0.739328-0.73728v-16.574464c0-0.405504 0.331776-0.73728 0.739328-0.73728h19.286016a10.24 10.24 0 0 0 10.123264-8.704c2.816-18.57536 10.223616-36.438016 21.424128-51.656704a10.24 10.24 0 0 0-1.007616-13.309952l-14.235648-14.235648a0.743424 0.743424 0 0 1 0-1.048576l11.718656-11.718656a0.743424 0.743424 0 0 1 1.048576 0l14.235648 14.235648a10.24 10.24 0 0 0 13.309952 1.007616c15.21664-11.198464 33.077248-18.60608 51.656704-21.424128a10.24 10.24 0 0 0 8.704-10.123264v-20.107264c0-0.407552 0.331776-0.739328 0.739328-0.739328h16.572416c0.407552 0 0.739328 0.331776 0.739328 0.739328v20.107264a10.24 10.24 0 0 0 8.704 10.123264c18.577408 2.818048 36.440064 10.225664 51.654656 21.424128a10.24 10.24 0 0 0 13.309952-1.005568l14.237696-14.237696a0.741376 0.741376 0 0 1 1.046528 0.002048l11.718656 11.716608a0.741376 0.741376 0 0 1 0.002048 1.046528l-14.237696 14.235648a10.24 10.24 0 0 0-1.007616 13.312c11.198464 15.214592 18.60608 33.0752 21.424128 51.656704a10.24 10.24 0 0 0 10.123264 8.704h20.107264c0.407552 0 0.739328 0.331776 0.739328 0.73728v16.574464a0.73728 0.73728 0 0 1-0.739328 0.73728h-20.107264zM176.064512 931.964928l-37.562368-108.650496c-17.620992-50.962432-18.30912-107.32544-1.941504-158.705664l52.396032-164.462592a9.404416 9.404416 0 0 1 8.99072-6.567936 9.44128 9.44128 0 0 1 9.433088 9.43104v97.86368c-15.884288 4.481024-27.574272 19.068928-27.574272 36.366336v91.574272c0 5.656576 4.583424 10.24 10.24 10.24s10.24-4.583424 10.24-10.24v-91.574272c0-9.558016 7.776256-17.334272 17.334272-17.334272s17.334272 7.776256 17.334272 17.334272v108.959744c0 7.704576 3.330048 15.024128 9.136128 20.082688l7.821312 6.817792a34.14016 34.14016 0 0 1 11.710464 25.741312v133.124096H176.064512zM284.102656 808.96V798.840832a54.603776 54.603776 0 0 0-18.735104-41.179136l-7.819264-6.815744a6.160384 6.160384 0 0 1-2.113536-4.644864v-23.189504h513.132544v23.189504a6.16448 6.16448 0 0 1-2.111488 4.642816l-7.821312 6.817792a54.614016 54.614016 0 0 0-18.735104 41.179136V808.96H284.102656z m476.274688 123.004928V798.84288c0-9.87136 4.268032-19.255296 11.710464-25.741312l7.825408-6.81984a26.632192 26.632192 0 0 0 9.132032-20.08064v-108.959744c0-9.558016 7.776256-17.334272 17.334272-17.334272s17.334272 7.776256 17.334272 17.334272v91.574272c0 5.656576 4.583424 10.24 10.24 10.24s10.24-4.583424 10.24-10.24v-91.574272c0-17.297408-11.689984-31.885312-27.574272-36.366336V503.00928a9.44128 9.44128 0 0 1 9.433088-9.43104 9.404416 9.404416 0 0 1 8.99072 6.567936l52.396032 164.462592c16.367616 51.380224 15.67744 107.743232-1.941504 158.705664l-37.562368 108.650496h-87.558144z" fill="#1C1D21" p-id="14610"></path></svg>