<?xml version="1.0" standalone="no"?><!DOCTYPE svg PUBLIC "-//W3C//DTD SVG 1.1//EN" "http://www.w3.org/Graphics/SVG/1.1/DTD/svg11.dtd"><svg t="1620453228500" class="icon" viewBox="0 0 1024 1024" version="1.1" xmlns="http://www.w3.org/2000/svg" p-id="2683" xmlns:xlink="http://www.w3.org/1999/xlink" width="64" height="64"><defs><style type="text/css"></style></defs><path d="M40.314 70.952l63.956-64.02h591.604l95.934 95.998v847.432l-63.956 66.704H40.314z" fill="#D7E9FF" p-id="2684"></path><path d="M791.808 950.362H104.27V6.994h591.604l95.934 95.936z" fill="#FFFFFF" p-id="2685"></path><path d="M791.808 118.92h-111.926V6.994h15.992l95.934 95.936z" fill="#FFFFFF" p-id="2686"></path><path d="M951.702 806.458v15.99l15.99 47.966-31.982 47.968-31.976-47.968 15.988-47.966v-15.99z" fill="#D7E9FF" p-id="2687"></path><path d="M935.71 886.404l-24.872-37.302-7.104 21.312 31.976 47.968 31.982-47.968-7.106-21.312z" fill="#FFFFFF" p-id="2688"></path><path d="M967.692 710.522v95.936h-63.958v-95.936z" fill="#94C1FF" p-id="2689"></path><path d="M903.734 678.542h63.958v31.978h-63.958z" fill="#D7E9FF" p-id="2690"></path><path d="M983.68 278.812l-15.988 399.73h-63.958l-15.99-399.73c0-35.336 12.63-63.958 47.966-63.958h1.594c34.072 0.952 46.376 29.106 46.376 63.958z" fill="#94C1FF" p-id="2691"></path><path d="M919.722 678.542l-15.988-399.73c0-32.416 10.868-58.898 39.91-63.098-2.094-0.312-4.044-0.796-6.34-0.86h-1.594c-35.336 0-47.966 28.622-47.966 63.958l15.99 399.73V806.456h15.988V678.542z" fill="#D7E9FF" p-id="2692"></path><path d="M951.702 678.542l15.99-399.73c0-32.416-10.87-58.898-39.912-63.098 2.092-0.312 4.044-0.796 6.34-0.86h1.592c35.336 0 47.968 28.622 47.968 63.958l-15.988 399.73V806.456h-15.99V678.542z" fill="#5C9EFF" p-id="2693"></path><path d="M919.722 806.458h31.978v15.99h-31.978z" fill="#94C1FF" p-id="2694"></path><path d="M104.27 950.362l-63.956 63.956V70.952l63.956-64.02zM392.078 233.264l-79.946-82.366-79.948 79.93v95.952h159.894z" fill="#D7E9FF" p-id="2695"></path><path d="M232.184 230.828v95.952h15.99v-111.924z" fill="#FFFFFF" p-id="2696"></path><path d="M392.078 230.828v95.952h-15.99v-111.924z" fill="#94C1FF" p-id="2697"></path><path d="M312.132 118.92l-111.926 111.924v31.978l111.926-111.924 111.924 111.924v-31.978z" fill="#94C1FF" p-id="2698"></path><path d="M903.734 678.542h15.988v31.978h-15.988z" fill="#FFFFFF" p-id="2699"></path><path d="M951.702 678.542h15.99v31.978h-15.99z" fill="#94C1FF" p-id="2700"></path><path d="M392.078 336.118h-159.892a7.99 7.99 0 0 1-7.994-7.994v-63.958a7.988 7.988 0 0 1 7.994-7.994 7.99 7.99 0 0 1 7.996 7.994v55.962h143.904v-55.962a7.988 7.988 0 0 1 7.994-7.994 7.99 7.99 0 0 1 7.996 7.994v63.958a7.994 7.994 0 0 1-7.998 7.994zM200.206 240.182a7.978 7.978 0 0 1-5.652-2.342 7.988 7.988 0 0 1 0-11.304l111.926-111.926c3.124-3.124 8.182-3.124 11.304 0s3.124 8.182 0 11.304l-111.926 111.926a7.97 7.97 0 0 1-5.652 2.342z" fill="#116FFF" p-id="2701"></path><path d="M424.056 240.182a7.978 7.978 0 0 1-5.652-2.342L306.48 125.914c-3.124-3.124-3.124-8.182 0-11.304s8.182-3.124 11.304 0l111.924 111.926a7.988 7.988 0 0 1 0 11.304 7.97 7.97 0 0 1-5.652 2.342zM200.206 272.16a7.978 7.978 0 0 1-5.652-2.342 7.988 7.988 0 0 1 0-11.304l111.926-111.926c3.124-3.124 8.182-3.124 11.304 0s3.124 8.182 0 11.304l-111.926 111.926a7.97 7.97 0 0 1-5.652 2.342z" fill="#116FFF" p-id="2702"></path><path d="M424.056 272.16a7.978 7.978 0 0 1-5.652-2.342L306.48 157.892c-3.124-3.124-3.124-8.182 0-11.304s8.182-3.124 11.304 0l111.924 111.926a7.988 7.988 0 0 1 0 11.304 7.97 7.97 0 0 1-5.652 2.342zM312.132 336.118a7.99 7.99 0 0 1-7.996-7.994v-31.978a7.99 7.99 0 0 1 7.996-7.994 7.988 7.988 0 0 1 7.994 7.994v31.978a7.99 7.99 0 0 1-7.994 7.994zM695.874 847.774H472.024a7.99 7.99 0 0 1-7.996-7.994 7.99 7.99 0 0 1 7.996-7.994h223.848a7.988 7.988 0 0 1 7.994 7.994 7.988 7.988 0 0 1-7.992 7.994z" fill="#116FFF" p-id="2703"></path><path d="M599.938 863.764a8.004 8.004 0 0 1-7.996-7.994v-29.2c-12.6 10.774-31.354 23.544-47.67 20.828-4.686-0.782-10.478-3.076-15.396-8.978a645.648 645.648 0 0 1-18.844 22.596 7.974 7.974 0 0 1-11.274 0.78 7.988 7.988 0 0 1-0.78-11.274 579.272 579.272 0 0 0 23.03-28.262c-5.872-21.112 0.828-39.756 10.072-48.576 6.994-6.668 15.722-8.59 23.904-5.262 3.686 1.498 6.214 4.464 7.152 8.382 2.358 9.884-8.994 29.152-23.032 48.266 3.014 5.684 6.4 6.308 7.666 6.528 14.74 2.716 41.16-21.986 46.984-28.856 2.154-2.562 5.746-3.56 8.884-2.39 3.154 1.156 5.292 4.092 5.292 7.45v21.562l17.332-25.996a8.012 8.012 0 0 1 6.652-3.56h31.978c4.418 0 7.994 3.576 7.994 7.994s-3.576 7.994-7.994 7.994h-27.702l-29.604 44.408a8 8 0 0 1-6.648 3.56z m-53.84-80.838c-1.092 0.218-2.436 0.86-3.98 2.328-3.654 3.496-6.48 9.898-7.136 17.644 5.728-8.542 9.806-15.662 11.116-19.972zM935.71 927.72a7.986 7.986 0 0 1-6.65-3.56l-31.978-47.968a7.974 7.974 0 0 1-0.938-6.962l15.584-46.734V807.8c0-4.418 3.576-7.994 7.994-7.994s7.994 3.576 7.994 7.994v15.988c0 0.86-0.14 1.718-0.406 2.532l-14.756 44.25 29.808 44.72a7.992 7.992 0 0 1-6.652 12.43z" fill="#116FFF" p-id="2704"></path><path d="M935.71 927.72a7.992 7.992 0 0 1-6.65-12.43l29.806-44.72-14.754-44.25a8.16 8.16 0 0 1-0.406-2.532V807.8c0-4.418 3.574-7.994 7.994-7.994s7.994 3.576 7.994 7.994v14.694l15.584 46.734a7.974 7.974 0 0 1-0.938 6.962l-31.978 47.968a7.98 7.98 0 0 1-6.652 3.562zM967.692 687.88h-63.958a7.99 7.99 0 0 1-7.996-7.994 7.99 7.99 0 0 1 7.996-7.996h63.958a7.99 7.99 0 0 1 7.994 7.996 7.99 7.99 0 0 1-7.994 7.994z" fill="#116FFF" p-id="2705"></path><path d="M903.734 687.88a8 8 0 0 1-7.996-7.682l-15.988-399.724a8 8 0 0 1 7.682-8.306c4.638-0.296 8.134 3.264 8.306 7.666l15.99 399.74a8.016 8.016 0 0 1-7.684 8.306h-0.31zM967.692 687.88h-0.312a8.016 8.016 0 0 1-7.684-8.306l15.99-399.74c0.186-4.402 4.168-7.924 8.306-7.666a8 8 0 0 1 7.682 8.306L975.686 680.2a8 8 0 0 1-7.994 7.68z" fill="#116FFF" p-id="2706"></path><path d="M983.68 288.15a7.99 7.99 0 0 1-7.994-7.996c0-37.13-13.446-55.96-39.974-55.96s-39.972 18.83-39.972 55.96c0 4.42-3.574 7.996-7.994 7.996s-7.994-3.576-7.994-7.996c0-45.726 20.392-71.952 55.96-71.952 35.57 0 55.962 26.224 55.962 71.952a7.99 7.99 0 0 1-7.994 7.996z" fill="#116FFF" p-id="2707"></path><path d="M951.702 224.194h-31.978a7.99 7.99 0 0 1-7.994-7.996 7.99 7.99 0 0 1 7.994-7.994h31.978a7.988 7.988 0 0 1 7.994 7.994 7.99 7.99 0 0 1-7.994 7.996zM935.71 496.01a7.99 7.99 0 0 1-7.994-7.994v-239.84a7.99 7.99 0 0 1 7.994-7.994 7.99 7.99 0 0 1 7.996 7.994v239.84a7.99 7.99 0 0 1-7.996 7.994zM967.692 719.86h-63.958a7.99 7.99 0 0 1-7.996-7.994 7.99 7.99 0 0 1 7.996-7.994h63.958a7.988 7.988 0 0 1 7.994 7.994 7.99 7.99 0 0 1-7.994 7.994z" fill="#116FFF" p-id="2708"></path><path d="M967.692 719.86a7.99 7.99 0 0 1-7.996-7.994v-31.978a7.99 7.99 0 0 1 7.996-7.996 7.99 7.99 0 0 1 7.994 7.996v31.978a7.99 7.99 0 0 1-7.994 7.994zM903.734 719.86a7.99 7.99 0 0 1-7.996-7.994v-31.978a7.99 7.99 0 0 1 7.996-7.996 7.99 7.99 0 0 1 7.994 7.996v31.978a7.99 7.99 0 0 1-7.994 7.994zM967.692 815.794h-63.958c-4.42 0-7.996-3.576-7.996-7.994s3.576-7.994 7.996-7.994h63.958c4.418 0 7.994 3.576 7.994 7.994s-3.576 7.994-7.994 7.994z" fill="#116FFF" p-id="2709"></path><path d="M967.692 815.794a7.99 7.99 0 0 1-7.996-7.994v-95.936a7.99 7.99 0 0 1 7.996-7.994 7.988 7.988 0 0 1 7.994 7.994V807.8a7.99 7.99 0 0 1-7.994 7.994zM903.734 815.794a7.99 7.99 0 0 1-7.996-7.994v-95.936a7.99 7.99 0 0 1 7.996-7.994 7.988 7.988 0 0 1 7.994 7.994V807.8a7.99 7.99 0 0 1-7.994 7.994z" fill="#116FFF" p-id="2710"></path><path d="M791.808 959.7a7.99 7.99 0 0 1-7.994-7.996V104.274c0-4.42 3.576-7.994 7.994-7.994s7.994 3.574 7.994 7.994v847.43a7.99 7.99 0 0 1-7.994 7.996z" fill="#116FFF" p-id="2711"></path><path d="M791.808 959.7H104.27a7.99 7.99 0 0 1-7.994-7.996 7.99 7.99 0 0 1 7.994-7.994h687.538a7.99 7.99 0 0 1 7.994 7.994 7.99 7.99 0 0 1-7.994 7.996z" fill="#116FFF" p-id="2712"></path><path d="M104.27 959.7a7.99 7.99 0 0 1-7.994-7.996V8.338A7.988 7.988 0 0 1 104.27 0.344a7.99 7.99 0 0 1 7.996 7.994v943.366a7.99 7.99 0 0 1-7.996 7.996z" fill="#116FFF" p-id="2713"></path><path d="M695.874 16.332H104.27a7.99 7.99 0 0 1-7.994-7.994A7.988 7.988 0 0 1 104.27 0.344h591.602a7.988 7.988 0 0 1 7.994 7.994 7.988 7.988 0 0 1-7.992 7.994z" fill="#116FFF" p-id="2714"></path><path d="M791.808 112.268a7.97 7.97 0 0 1-5.652-2.342L690.22 13.99c-3.124-3.124-3.124-8.182 0-11.304s8.182-3.124 11.304 0l95.936 95.936a7.988 7.988 0 0 1 0 11.304 7.974 7.974 0 0 1-5.652 2.342z" fill="#116FFF" p-id="2715"></path><path d="M679.882 128.258a7.99 7.99 0 0 1-7.994-7.996V40.316a7.988 7.988 0 0 1 7.994-7.994 7.99 7.99 0 0 1 7.996 7.994v79.946a7.99 7.99 0 0 1-7.996 7.996z" fill="#116FFF" p-id="2716"></path><path d="M759.83 128.258h-79.948a7.99 7.99 0 0 1-7.994-7.996 7.99 7.99 0 0 1 7.994-7.994h79.948a7.99 7.99 0 0 1 7.994 7.994 7.99 7.99 0 0 1-7.994 7.996z" fill="#116FFF" p-id="2717"></path><path d="M695.874 448.042H200.206a7.99 7.99 0 0 1-7.994-7.996 7.99 7.99 0 0 1 7.994-7.994h495.666a7.99 7.99 0 0 1 7.994 7.994 7.988 7.988 0 0 1-7.992 7.996z" fill="#116FFF" p-id="2718"></path><path d="M695.874 512H200.206a7.99 7.99 0 0 1-7.994-7.996 7.99 7.99 0 0 1 7.994-7.994h495.666a7.99 7.99 0 0 1 7.994 7.994 7.988 7.988 0 0 1-7.992 7.996z" fill="#116FFF" p-id="2719"></path><path d="M695.874 575.958H200.206a7.99 7.99 0 0 1-7.994-7.996 7.99 7.99 0 0 1 7.994-7.994h495.666a7.99 7.99 0 0 1 7.994 7.994 7.988 7.988 0 0 1-7.992 7.996z" fill="#116FFF" p-id="2720"></path><path d="M695.874 639.914H200.206a7.99 7.99 0 0 1-7.994-7.996 7.99 7.99 0 0 1 7.994-7.994h495.666a7.99 7.99 0 0 1 7.994 7.994 7.988 7.988 0 0 1-7.992 7.996z" fill="#116FFF" p-id="2721"></path><path d="M456.034 703.872H200.206a7.99 7.99 0 0 1-7.994-7.996 7.99 7.99 0 0 1 7.994-7.994h255.828a7.99 7.99 0 0 1 7.996 7.994 7.992 7.992 0 0 1-7.996 7.996z" fill="#116FFF" p-id="2722"></path><path d="M72.292 991.678a7.99 7.99 0 0 1-7.994-7.994V40.316a7.988 7.988 0 0 1 7.994-7.994 7.99 7.99 0 0 1 7.996 7.994v943.368a7.99 7.99 0 0 1-7.996 7.994z" fill="#116FFF" p-id="2723"></path><path d="M759.83 991.678H72.292a7.99 7.99 0 0 1-7.994-7.994 7.99 7.99 0 0 1 7.994-7.996h687.538a7.99 7.99 0 0 1 7.994 7.996 7.99 7.99 0 0 1-7.994 7.994z" fill="#116FFF" p-id="2724"></path><path d="M727.852 1023.656H40.314a7.99 7.99 0 0 1-7.994-7.996 7.99 7.99 0 0 1 7.994-7.994h687.538a7.99 7.99 0 0 1 7.994 7.994 7.99 7.99 0 0 1-7.994 7.996z" fill="#116FFF" p-id="2725"></path><path d="M40.314 1023.656a7.99 7.99 0 0 1-7.994-7.996V72.294a7.988 7.988 0 0 1 7.994-7.994 7.99 7.99 0 0 1 7.996 7.994V1015.66a7.992 7.992 0 0 1-7.996 7.996z" fill="#116FFF" p-id="2726"></path></svg>