<svg xmlns:xlink="http://www.w3.org/1999/xlink" width="1132" xmlns:ev="http://www.w3.org/2001/xml-events" height="804" viewBox="0 0 1132 804" xmlns="http://www.w3.org/2000/svg"><style type="text/css"><![CDATA[
.st3 {fill:#1f6391;font-family:Arial;font-size:10pt}
.st4 {fill:#3a526b}
.st6 {fill:#ffffff;font-family:Arial;font-size:10pt;font-weight:bold}
.st5 {fill:#ffffff;font-family:Arial;font-size:10pt}
.st1 {fill:#ffffff;font-family:Arial;font-size:22pt}
.st7 {font-size:22pt}
.st2 {font-weight:bold}
]]></style><defs/><g transform="translate(5,5)" id="page1"><rect y="0" x="0" width="1123" height="794" stroke="#808080" fill="#fffefc"/><g transform="translate(-1.1,-0.49)"><path d="M0,0L424.7,0L448.2,30.7L424.7,61.5L0,61.5L0,0z" stroke="#d0d5dc" id="shape1" fill="#3a526b"/><path d="M7.9,0L0,0L23.5,31.1L0,61.5L7.9,61.5L31.4,31.1L7.9,0z" transform="translate(416.83,0)" stroke="#d0d5dc" id="shape2" fill="#858a9f"/><path d="M7.9,0L0,0L23.7,31.1L.1,61.5L8,61.5L32.2,31.1L7.9,0z" transform="translate(408.96,0)" stroke="#d0d5dc" id="shape3" fill="#aaadba"/><path d="M7.9,0L0,0L24.4,31.1L.1,61.5L8,61.5L32.3,31.1L7.9,0z" transform="translate(401.09,0)" stroke="#d0d5dc" id="shape4" fill="#c0c2cb"/><text class="st1"><tspan y="40.1" x="90.1" class="st2">Add Your Title Here</tspan></text></g><path d="M0,229.7C0,102.8,102.8,0,229.7,0C356.5,0,459.3,102.8,459.3,229.7C459.3,356.5,356.5,459.3,229.7,459.3C102.8,459.3,0,356.5,0,229.7z" transform="translate(329.17,216.15)" stroke-dasharray="2.5,2.5" stroke="#3a526b" stroke-width="2.66667" id="shape5" fill="none"/><a xlink:href="http://www.baidu.com"><path d="M0,51.5C0,23.1,23.1,0,51.5,0C80,0,103.1,23.1,103.1,51.5C103.1,80,80,103.1,51.5,103.1C23.1,103.1,0,80,0,51.5z" transform="translate(507.3,167.34)" stroke="#fc9187" id="shape6" fill="#fc9187"/></a><path d="M0,51.5C0,23.1,23.1,0,51.5,0C80,0,103.1,23.1,103.1,51.5C103.1,80,80,103.1,51.5,103.1C23.1,103.1,0,80,0,51.5z" transform="translate(696.99,261.08)" stroke="#aecaea" id="shape7" fill="#aecaea"/><path d="M0,51.5C0,23.1,23.1,0,51.5,0C80,0,103.1,23.1,103.1,51.5C103.1,80,80,103.1,51.5,103.1C23.1,103.1,0,80,0,51.5z" transform="translate(738.01,425.65)" stroke="#fc9187" id="shape8" fill="#fc9187"/><path d="M0,51.5C0,23.1,23.1,0,51.5,0C80,0,103.1,23.1,103.1,51.5C103.1,80,80,103.1,51.5,103.1C23.1,103.1,0,80,0,51.5z" transform="translate(283.63,425.65)" stroke="#fc9187" id="shape9" fill="#fc9187"/><path d="M0,51.5C0,23.1,23.1,0,51.5,0C80,0,103.1,23.1,103.1,51.5C103.1,80,80,103.1,51.5,103.1C23.1,103.1,0,80,0,51.5z" transform="translate(323.57,261.08)" stroke="#aecaea" id="shape10" fill="#aecaea"/><g transform="translate(111.94,277.63)" id="shape11"><text class="st3"><tspan y="14.5" x="14.1" class="st4">Replace your text here!Replace </tspan><tspan y="30.5" x="12.7" class="st4">your text here!Replace your text </tspan><tspan y="46.5" x="23.4" class="st4">here!Replace your text here!</tspan><tspan y="62.5" x="38.1" class="st4">Replace your text here!</tspan></text></g><path d="M22.7,28.3C21.7,29.3,20.7,30.2,19.5,30.8C18.4,31.5,17.2,31.8,16,31.8C14.8,31.8,13.5,31.4,12.3,30.7C11.1,30,10.1,28.8,9.4,27.3C8.6,25.8,8.2,24.1,8.2,22.3C8.2,20,8.8,17.7,10,15.5C11.2,13.2,12.6,11.5,14.4,10.4C16.1,9.3,17.8,8.7,19.4,8.7C20.7,8.7,21.9,9,23,9.7C24.2,10.3,25.1,11.3,26,12.6L26.7,9.3L30.6,9.3L27.4,23.6C27,25.6,26.8,26.7,26.8,26.9C26.8,27.2,26.9,27.6,27.2,27.9C27.5,28.1,27.9,28.3,28.3,28.3C29.1,28.3,30.1,27.8,31.3,27C32.9,25.8,34.2,24.3,35.2,22.4C36.2,20.5,36.6,18.5,36.6,16.5C36.6,14.1,36,11.9,34.8,9.9C33.6,7.8,31.7,6.2,29.3,5C26.8,3.7,24.2,3.1,21.2,3.1C17.8,3.1,14.8,3.9,12,5.4C9.2,7,7,9.2,5.5,12.1C4,15,3.2,18.1,3.2,21.4C3.2,24.9,4,27.9,5.5,30.4C7,32.9,9.2,34.8,12.1,36C15,37.2,18.3,37.7,21.8,37.7C25.6,37.7,28.7,37.1,31.3,35.9C33.8,34.6,35.7,33.1,37,31.3L40.9,31.3C40.2,32.8,38.9,34.3,37.1,35.9C35.3,37.4,33.2,38.6,30.7,39.5C28.3,40.4,25.3,40.9,21.9,40.9C18.7,40.9,15.7,40.5,13,39.7C10.3,38.9,8,37.7,6.1,36C4.2,34.4,2.8,32.5,1.8,30.4C.6,27.8,0,24.9,0,21.8C0,18.3,.7,15,2.2,11.9C3.9,8,6.4,5.1,9.6,3.1C12.9,1,16.8,0,21.4,0C25,0,28.2,.7,31,2.2C33.9,3.6,36.1,5.7,37.7,8.6C39.1,11,39.8,13.7,39.8,16.6C39.8,20.7,38.4,24.3,35.4,27.5C32.8,30.4,29.9,31.8,26.8,31.8C25.8,31.8,25,31.7,24.4,31.4C23.8,31.1,23.4,30.7,23.1,30.1C22.9,29.7,22.8,29.1,22.7,28.3zM12.2,22.5C12.2,24.5,12.7,26,13.6,27C14.6,28.1,15.6,28.7,16.8,28.7C17.6,28.7,18.5,28.4,19.4,27.9C20.3,27.5,21.1,26.8,21.9,25.8C22.8,24.9,23.4,23.7,23.9,22.3C24.5,20.8,24.7,19.4,24.7,17.9C24.7,16,24.2,14.5,23.3,13.5C22.3,12.4,21.1,11.9,19.7,11.9C18.8,11.9,17.9,12.1,17.1,12.6C16.3,13,15.5,13.8,14.7,14.8C14,15.8,13.4,17,12.9,18.5C12.5,20,12.2,21.3,12.2,22.5z" transform="translate(354.66,292.16)" stroke="#ffffff" id="shape12" fill="#ffffff"/><path d="M20.4,12.6C22.8,12.6,25,13.5,26.6,15.2C28.3,16.8,29.2,19,29.2,21.4C29.2,23,28.8,24.5,28,25.8C27.3,27.1,26.1,28.2,24.8,29L23.4,29.8L23.4,31.5L23.4,38L17.5,38L17.5,31.5L17.5,29.8L16.1,29C13.4,27.4,11.7,24.5,11.7,21.4C11.7,19,12.6,16.8,14.3,15.2C15.9,13.5,18.1,12.6,20.4,12.6zM22.4,0C21.8,0,18.5,0,18.5,0L18.5,5.8L22.4,5.8L22.4,0zM34.2,4.9L30.7,8.4L33.4,11.1L36.9,7.6L34.2,4.9zM6.7,4.9L4,7.6L7.5,11.1L10.2,8.4L6.7,4.9zM20.4,9.7C14,9.7,8.8,14.9,8.8,21.4C8.8,25.7,11.1,29.5,14.6,31.5L14.6,40.9L26.3,40.9L26.3,31.5C29.8,29.5,32.1,25.8,32.1,21.4C32.1,14.9,26.9,9.7,20.4,9.7zM40.9,19.4L35.1,19.4L35.1,23.3L40.9,23.3L40.9,19.4zM5.8,19.4L0,19.4L0,23.3L5.8,23.3L5.8,19.4z" transform="translate(314.71,456.73)" stroke="#ffffff" id="shape13" fill="#ffffff"/><path d="M20.4,0C9.2,0,0,9.2,0,20.4C0,31.7,9.2,40.9,20.4,40.9C31.7,40.9,40.9,31.7,40.9,20.4C40.9,9.2,31.7,0,20.4,0zM20.4,1.7C30.8,1.7,39.2,10.1,39.2,20.4C39.2,25,37.6,29.2,34.8,32.5C32.9,31.7,28.4,30.1,25.7,29.3C25.5,29.2,25.4,29.2,25.4,28.3C25.4,27.5,25.8,26.7,26.1,26C26.4,25.2,26.8,24,27,22.9C27.4,22.4,28,21.4,28.3,19.6C28.6,18,28.5,17.4,28.3,16.9C28.3,16.8,28.2,16.8,28.2,16.7C28.1,16.4,28.3,14.4,28.5,12.9C28.7,11.9,28.5,9.7,27.1,7.9C26.2,6.7,24.4,5.3,21.3,5.1L19.6,5.1C16.5,5.3,14.8,6.7,13.9,7.9C12.5,9.7,12.2,11.9,12.4,12.9C12.7,14.4,12.8,16.4,12.7,16.7C12.7,16.8,12.7,16.9,12.7,16.9C12.5,17.5,12.3,18,12.6,19.6C13,21.4,13.5,22.4,14,22.9C14.1,24,14.5,25.2,14.9,26C15.1,26.5,15.2,27.3,15.2,28.3C15.2,29.3,15.2,29.3,15,29.3C12.2,30.2,7.8,31.7,6.1,32.5C3.4,29.2,1.7,25,1.7,20.4C1.7,10.1,10.1,1.7,20.4,1.7z" transform="translate(769.09,456.73)" stroke="#ffffff" id="shape14" fill="#ffffff"/><path d="M0,21.9L11.7,26.3L13.1,40.9L20.4,30.7L30.7,40.9L40.9,0L0,21.9zM29.1,35.2L20.4,26.3L32.1,10.2L14.6,24.3L7.1,21.4L36.5,5.7L29.1,35.2z" transform="translate(538.39,198.42)" stroke="#ffffff" id="shape15" fill="#ffffff"/><g transform="translate(728.07,292.16)"><path d="M10.2,0L1.7,0C.8,0,0,.8,0,1.7C0,2.6,.8,3.4,1.7,3.4L10.2,3.4C11.2,3.4,11.9,2.6,11.9,1.7C11.9,.8,11.2,0,10.2,0z" transform="translate(28.97,18.74)" stroke="#ffffff" id="shape16" fill="#ffffff"/><path d="M11.9,1.7C11.9,.8,11.2,0,10.2,0L1.7,0C.8,0,0,.8,0,1.7C0,2.6,.8,3.4,1.7,3.4L10.2,3.4C11.2,3.4,11.9,2.6,11.9,1.7z" transform="translate(-0,18.74)" stroke="#ffffff" id="shape17" fill="#ffffff"/><path d="M1.7,0C.8,0,0,.8,0,1.7L0,10.2C0,11.2,.8,11.9,1.7,11.9C2.6,11.9,3.4,11.2,3.4,10.2L3.4,1.7C3.4,.8,2.6,0,1.7,0z" transform="translate(18.74,28.97)" stroke="#ffffff" id="shape18" fill="#ffffff"/><path d="M1.7,0C.8,0,0,.8,0,1.7L0,10.2C0,11.2,.8,11.9,1.7,11.9C2.6,11.9,3.4,11.2,3.4,10.2L3.4,1.7C3.4,.8,2.6,0,1.7,0z" transform="translate(18.74,-0)" stroke="#ffffff" id="shape19" fill="#ffffff"/><path d="M.5,7.1C.9,7.9,2,8.2,2.8,7.7L10.2,3.4C11,3,11.3,1.9,10.8,1.1C10.3,.3,9.3,0,8.5,.5L1.1,4.7C.3,5.2,0,6.2,.5,7.1z" transform="translate(27.36,9.13)" stroke="#ffffff" id="shape20" fill="#ffffff"/><path d="M10.8,1.1C10.3,.3,9.3,0,8.5,.5L1.1,4.7C.3,5.2,0,6.2,.5,7.1C.9,7.9,2,8.2,2.8,7.7L10.2,3.4C11,3,11.3,1.9,10.8,1.1z" transform="translate(2.26,23.61)" stroke="#ffffff" id="shape21" fill="#ffffff"/><path d="M3.4,1.1C3,.3,1.9,0,1.1,.5C.3,.9,0,2,.5,2.8L4.7,10.2C5.2,11,6.2,11.3,7.1,10.8C7.9,10.3,8.2,9.3,7.7,8.5L3.4,1.1z" transform="translate(23.61,27.35)" stroke="#ffffff" id="shape22" fill="#ffffff"/><path d="M3.4,1.1C3,.3,1.9,0,1.1,.5C.3,.9,0,2,.5,2.8L4.7,10.2C5.2,11,6.2,11.3,7.1,10.8C7.9,10.3,8.2,9.3,7.7,8.5L3.4,1.1z" transform="translate(9.13,2.27)" stroke="#ffffff" id="shape23" fill="#ffffff"/><path d="M1.1,10.8C1.9,11.3,3,11,3.4,10.2L7.7,2.8C8.2,2,7.9,.9,7.1,.5C6.2,0,5.2,.3,4.7,1.1L.5,8.5C0,9.3,.3,10.3,1.1,10.8z" transform="translate(23.61,2.26)" stroke="#ffffff" id="shape24" fill="#ffffff"/><path d="M7.1,.5C6.2,0,5.2,.3,4.7,1.1L.5,8.5C0,9.3,.3,10.3,1.1,10.8C1.9,11.3,3,11,3.4,10.2L7.7,2.8C8.2,2,7.9,.9,7.1,.5z" transform="translate(9.13,27.36)" stroke="#ffffff" id="shape25" fill="#ffffff"/><path d="M10.2,4.7L2.8,.5C2,0,.9,.3,.5,1.1C0,1.9,.3,3,1.1,3.4L8.5,7.7C9.3,8.2,10.3,7.9,10.8,7.1C11.3,6.2,11,5.2,10.2,4.7z" transform="translate(27.35,23.61)" stroke="#ffffff" id="shape26" fill="#ffffff"/><path d="M1.1,3.4L8.5,7.7C9.3,8.2,10.3,7.9,10.8,7.1C11.3,6.2,11,5.2,10.2,4.7L2.8,.5C2,0,.9,.3,.5,1.1C0,1.9,.3,3,1.1,3.4z" transform="translate(2.27,9.13)" stroke="#ffffff" id="shape27" fill="#ffffff"/></g><g transform="translate(799.6,277.63)" id="shape28"><text class="st3"><tspan y="14.5" x="14.1" class="st4">Replace your text here!Replace </tspan><tspan y="30.5" x="12.7" class="st4">your text here!Replace your text </tspan><tspan y="46.5" x="23.4" class="st4">here!Replace your text here!</tspan><tspan y="62.5" x="38.1" class="st4">Replace your text here!</tspan></text></g><g transform="translate(66.73,443.35)" id="shape29"><text class="st3"><tspan y="14.5" x="14.1" class="st4">Replace your text here!Replace </tspan><tspan y="30.5" x="12.7" class="st4">your text here!Replace your text </tspan><tspan y="46.5" x="23.4" class="st4">here!Replace your text here!</tspan><tspan y="62.5" x="38.1" class="st4">Replace your text here!</tspan></text></g><g transform="translate(842.67,443.35)" id="shape30"><text class="st3"><tspan y="14.5" x="14.1" class="st4">Replace your text here!Replace </tspan><tspan y="30.5" x="12.7" class="st4">your text here!Replace your text </tspan><tspan y="46.5" x="23.4" class="st4">here!Replace your text here!</tspan><tspan y="62.5" x="38.1" class="st4">Replace your text here!</tspan></text></g><g transform="translate(454.7,93.37)" id="shape31"><text class="st3"><tspan y="14.5" x="14.1" class="st4">Replace your text here!Replace </tspan><tspan y="30.5" x="12.7" class="st4">your text here!Replace your text </tspan><tspan y="46.5" x="23.4" class="st4">here!Replace your text here!</tspan><tspan y="62.5" x="38.1" class="st4">Replace your text here!</tspan></text></g><g transform="translate(372.78,357.99)"><path d="M52.2,134.8C52.2,134.8,57.1,40.6,134.6,13.6C203.5,-10.4,302.2,-14.5,355.5,101.2C355.5,101.2,385.9,188.2,318.4,240.9C318.4,240.9,284.6,282.7,278.5,329.9C272.4,377.1,299.5,434.7,299.5,434.7L129.9,434.7C129.9,434.7,113.7,361.4,96.1,352.5C78.5,343.6,41.4,335.4,41.4,335.4C41.4,335.4,16.4,332.6,24.5,308C24.5,308,35.3,290.9,25.8,281.3C25.8,281.3,11,274.5,24.5,266.9C24.5,266.9,13,257.3,21.1,249.1C21.1,249.1,32.6,240.2,21.1,232C21.1,232,-9.3,232.7,2.9,210.1C2.9,210.1,16.7,194.7,37.3,173.8C37.3,173.8,58.3,159.4,52.2,134.8z" stroke="#cce7df" id="shape32" fill="#3a526b"/><g transform="translate(27.37,25.36)"><path d="M132.8,115.3C117.7,120,115.3,113.9,102.1,117.1C88.9,120.3,78.1,122.2,67.9,111.3C57.7,100.4,58.1,69.9,70.9,50.7C83.8,31.4,93.6,21.5,102.8,15.4C111.9,9.3,121.7,9.3,127.2,6.1C129,5,134.6,.6,146.8,1.3C159,1.9,161,0,169.5,0C178,0,192.5,0,200.3,3.2C208.1,6.1,220,6.4,237.2,16.4C254.5,26.3,256.6,22.5,268.4,33.7C280.3,44.9,284.7,44,291.1,57.1C297.5,70.3,306,77.3,306,85.3C306,93.4,311.4,105.6,311.4,117.1C311.4,128.7,308.7,144.7,300.6,150.5C292.5,156.3,284,149.8,273.2,149.2C262.3,148.6,246.7,155.6,237.2,153.1C227.8,150.5,221.7,152.7,213.5,156.6C205.4,160.4,200.7,153.4,191.9,158.8C183.1,164.3,178.3,155.9,167.1,161.1C155.7,166.2,135.3,156.3,129.5,147.9C123.8,139.6,122.4,125.1,132.8,115.3zM0,224.7zM0,224.7z" stroke="#fff5ee" stroke-width="0.25" id="shape33" fill="#fff5ee"/><path d="M113.5,161C113.7,159.4,106.1,153.5,103.6,152.2C101.2,150.9,101.9,141,101.9,141C99.2,144.1,101.3,151.9,102.5,153.1C103.8,154.3,109.7,157.7,113.5,161zM141.1,143C150.5,148.7,168.5,150.9,179.9,147C179.9,147,156.8,150.9,141.1,143zM75.4,111.3C57.9,109.9,57.2,107.1,57.2,105.8C57.2,105.8,57.7,108.2,75.4,111.3zM67.5,116.5C46.7,113,30.7,101.8,20.7,103.2C10.6,104.5,3.2,107.3,3.2,108.2C5.6,109.5,15.3,103.6,24.2,104.7C33.2,105.8,55.7,117.6,67.5,116.5zM0,99.4C.7,92.9,3.4,93.3,7.2,83C11,72.7,21.6,72.9,24.2,68.3C26.9,63.7,24.2,53.2,29.6,50.8C35,48.4,39,48.4,42.2,37.7C45.3,26.9,56.5,20.8,63,19.3C69.6,17.7,80.9,16.4,79.9,8.8C79.4,5.3,76.5,4.3,76.3,4.3C80.5,3.5,82.1,9.4,81.2,11.6C80.3,13.8,80.5,16.4,63,20.8C47.1,24.8,44.2,35.9,42.6,40.7C40.7,46.4,36.6,49.7,31,51.9C25.4,54.1,27.6,65,25.6,69C23.6,72.9,11.5,75.3,8.7,82.5C5.9,89.6,-0.4,99.4,0,99.4zM59.2,21C63.3,17.7,61.3,11,59.2,11C63.5,11.8,64.2,18.4,59.2,21zM15.1,39.6C20.7,36.8,26.7,40.3,28.1,37.9C29.4,35.5,31.3,29.9,35.9,27.8C40.5,25.7,41.6,20.5,45.3,16.9C49,13.3,50.3,8.6,50.3,8.6C50.3,8.6,50.7,13.8,46.2,17.7C41.7,21.7,41.9,25.9,39.7,27.2C34.3,30.2,30.6,35.2,29.2,38.8C27.7,42.4,24,39,15.1,39.6zM25.4,73.8C22.5,81.9,22.5,82.3,28.1,84.5C33.7,86.7,36.8,88.9,36.8,90.7C37.5,83.7,23.6,84.1,24.5,80.5C25.4,76.7,25.4,73.4,25.4,73.8zM27.6,83.4C33.4,80.5,35.7,75.3,34.1,71.6C34.1,71.6,39.3,78.6,27.6,83.4zM48.7,69.4C52.3,69.9,54.7,74.7,54.7,74.7L60.8,72.1C60.8,72.1,55.5,75.4,54.7,76.2C54,77,49.1,83.9,50.9,88.5C52.7,93.1,53.9,94.6,53.9,94.6C53.9,94.6,46.4,95.3,46.4,99.2C46.4,99.2,46,94.6,51.8,93.3C51.8,93.3,48.7,88,49.6,83.9C50.5,79.7,53.4,75.8,53.4,75.8C53.4,75.8,55,72.9,48.7,69.4zM34.1,61.1C35.9,61.1,41.7,66.1,41.7,66.1C41.7,66.1,47.6,60,55.9,60C64.2,60,68.2,66.1,68.2,66.1C68.2,66.1,70,59.1,74.5,57.6C74.5,57.6,74.3,51.5,70.2,49.1C66.2,46.6,57.7,44.2,58.3,35.5C58.3,35.5,59.4,44,69.8,47.3C75.4,50.6,75.8,58,75.8,58C75.8,58,70.4,60,68.4,68.8C68.4,68.8,63.7,60.4,55.2,61.1C46.7,61.8,42.2,67.7,42.2,67.7C42.2,67.7,44.2,71,42.6,74.3C42.6,74.3,42.4,68.8,40.6,66.6C39.3,65,34.6,61.1,34.1,61.1zM74.9,57.6C76.6,55.9,84.1,56.1,84.1,51.7C84.1,47.3,84.1,42.9,79.2,40.1C79.2,40.1,87.5,40.5,85.3,53.4C85.3,53.4,90.8,53.7,92.2,54.5C92.2,54.5,101.8,43.1,96.9,36.6C92,30,83.2,26.7,74.5,28.9C65.7,31.1,66.7,28.9,66.7,28.9C66.7,28.9,70.4,29.8,76.5,27.4C76.5,27.4,78.5,25.2,75.8,21.7C73.1,18.2,70.7,18.4,70.7,18.4C70.7,18.4,77.4,17.5,78.6,26.2C82.3,26.2,93.8,31.1,94.7,31.1C95.6,31.1,105,28.9,106.6,26.2C108.1,23.4,110.2,20.8,113.3,19.1C116.4,17.3,114.2,15.1,120.2,14C126.3,12.9,129.7,8.6,129.7,8.6C129.7,8.6,129.7,11.8,120.7,15.1C118,16,115.5,17.3,114.6,19.9C114.6,19.9,110.1,21.5,108.1,26.9C105.9,30.9,99.2,30.2,97.8,32.4C96.5,34.6,100.7,38.9,99.7,42.4C97.9,48.9,94.4,53,94.9,54.5C95.3,56.1,99.6,65.7,98,74.9C96.5,84.1,99.6,85.4,99.6,85.4C99.6,85.4,94.9,87.8,96.7,74.2C98.9,68.5,95.1,55.4,91.8,55.4C88.4,55.4,87,53.9,81.7,56.1C76.3,58.3,74.9,57.6,74.9,57.6zM68.4,66.8C67.8,73.6,68.7,90.2,70.7,91.8C72.7,93.3,75.2,93.7,75.2,93.7C75.2,93.7,69.8,92.6,69.2,93.2C68.7,93.7,65.7,95.3,65.7,95.3C65.7,95.3,70,92.1,69.2,91.3C68.4,90.6,65.7,67.5,68.4,66.8zM42.6,52.1C46.5,48.4,50.7,48.4,54.1,51C54.1,51,48.7,44.2,42.6,52.1zM90.2,101.9C85.5,76,78.5,72.9,78.5,72.9C82.3,72.9,84.1,76.9,84.1,76.9C84.1,76.9,86.2,70.1,86.2,69C86.1,65.9,87.3,63.5,87.3,63.5C87.3,63.5,87.8,68.6,86.4,73.1C84.4,79.7,85.5,80.2,87.3,85.2C89.1,90.2,91.8,100.3,91.8,100.3L90.2,101.9zM103.9,96.8C108.6,92.9,109.7,82.1,107.7,79.3C107.7,79.3,114.2,89.2,103.9,96.8zM87.1,7.7C92.9,7.7,94.7,9,94.7,9C94.7,9,98.5,.9,110.6,0C110.6,0,99.8,1.8,96,9.2C96,9.2,95.7,13.2,98,15.5C98,15.5,95.3,15.1,94.7,10.3C94.7,10.3,89.5,7.4,87.1,7.7zM134.6,1.5C133.3,3.7,129.2,3.7,125,3.7C120.7,3.7,115.3,7.7,110.1,5.7C115.3,6.1,120.5,2,127,2.4C133.5,2.8,134.6,1.5,134.6,1.5zM151.2,6.8C139.3,10.1,135.3,15.3,135.3,15.3C140.4,6.8,151.2,6.8,151.2,6.8zM138.6,11.6C142.1,8.2,136.4,5.7,136.4,5.7C136.4,5.7,144.2,6.8,138.6,11.6zM175.7,15.5C171.9,15.5,158,17,154.6,18.2C150.3,19.7,149.8,28.9,145.1,28.9C140.4,28.9,130.8,33.5,129,40.1C127.2,46.6,125.2,50.2,121.1,56.5C117.1,62.9,126.1,81.9,116,83.5C124.3,78,115.3,61.3,120,55.8C124.7,50.4,125.6,46.6,127.6,39.6C129.7,32.6,138,28.7,144.5,27.8C151,26.9,148.1,18.4,155,16.9C162,15.3,171.2,14.2,175.7,15.5zM129.2,90.9C135.5,85.4,122.6,71.1,129.7,63.1C142.7,48.4,134.1,44.5,134.1,44.5C142,44.5,137,56.9,130.8,63.7C124.1,71.2,137.7,86.1,129.2,90.9zM203.5,31.8C194.5,30,183.9,23.4,178.8,27.2C173.6,30.9,171.4,32.4,167.1,33.1C162.9,33.7,163.5,41.6,154.3,42.3C145.1,42.9,154.3,48.8,145.1,59.4C135.9,69.9,144,74,147.6,74.9C151.2,75.8,151.9,80.8,151.9,80.8C151.9,80.8,154.2,76.9,148.5,74C142.9,71.2,138.6,69.9,148.5,56.9C154.2,49.4,149,43.4,153.7,44C160.8,45,164.4,36.6,167.8,34.8C171.2,33.1,176.5,30.5,179.5,28.7C186.6,24.3,200.5,34.5,203.5,31.8zM145.1,73.1C146.3,75.8,144.2,79.3,144.2,79.3C144.2,79.3,148.3,78.6,145.1,73.1zM206.8,91.8C212.4,78.8,208.4,73.6,203.9,69.2C200.1,65.5,188.4,72.5,186.4,73.4C184.4,74.2,183,66.1,181.3,63.9C178.6,60.7,172.3,60.4,167.8,58.5C164.8,57.2,160.4,57.8,160.4,57.8C167.6,55.4,166,53.4,167.3,49.5C167.3,49.5,166.2,53.2,167.3,56.3C168.5,59.4,179,58.9,182.1,63.3C185.3,67.7,183.7,71.6,186.9,71.6C190,71.6,197.6,64.2,203.7,67.9C209.8,71.6,214.4,82.6,206.8,91.8zM184.6,78.4C185.5,78.4,188.8,75.7,185.5,72.5C187.8,75.6,184.6,78.4,184.6,78.4zM188.9,89.4C180.6,106.2,166.2,110.6,159.5,108.6C158.1,108.6,147.4,115.4,133.9,113.2C120.5,111,116,120.9,110.1,121.5C104.3,122.2,89.3,123.3,83.9,126.1C78.5,129,80.5,139.9,90,141.3C99.4,142.6,116.2,141.5,120.7,140.2C125.2,138.8,132.8,136.9,137.7,139.1L141.1,140.4C141.1,140.4,142,135.6,145.5,136.1C149,136.7,167.8,139.4,170.7,137.8C173.6,136.1,187.5,136.4,189.8,135.3C192,134.3,201,126.6,201,123.7C201,123.7,193.1,132.3,188.7,133.8C184.2,135.3,172.7,135.6,169.4,136.4C166,137.3,149.6,135.6,145.8,134.7C142,133.8,140.2,138.2,140.2,138.2C140.2,138.2,135,136.4,129.2,137.1C123.4,137.8,107.3,141.6,94.2,140.4C84.8,139.5,78.7,131.8,84.2,127.8C89.7,123.7,109.3,123.7,110.6,123.1C120.9,118.3,122.5,113.4,133.3,114.5C144,115.6,158.1,112.8,159.5,110.4C159.5,110.4,181.3,112.3,188.9,89.4zM157.9,110.4C163.5,104.9,163.8,95.5,160.8,93.5C168,97.7,160.7,112.1,157.9,110.4zM115.8,119.6C119.7,115.7,118.9,111.9,117.3,110.4C122.7,112.6,116.9,121.1,115.8,119.6zM100.5,123.3C99.2,122.9,97.8,113.7,99.2,113C100.5,112.3,103,109.9,103.9,107.8C103.9,107.8,100.3,111.7,97.4,112.3C94.4,113,90,112.3,90.2,112.3C90.2,112.3,97,114.1,97.7,113.4C96.8,118.5,98,122.9,100.5,123.3zM83.6,127.1C79,126.1,79.9,120,79.9,120C79.9,120,80.1,124.4,83.6,127.1zM82.3,135.6C83.2,138.8,79,140.2,79,140.2C84.4,140.2,82.3,135.6,82.3,135.6zM140.4,139.1C143.1,145.9,132.9,152.8,119.8,151.6C106.6,150.2,108.1,145.4,108.1,145.4C106.1,153.1,122.5,153.1,127.6,152.8C132.8,152.2,144.9,147,140.4,139.1zM129.2,137.8C124.3,137.8,124.7,129.9,121.4,127.7C118,125.5,115.3,122,116.4,120L113.5,121.1L110.4,122.6C110.4,122.6,113.6,121.9,117.3,125.5C121,129.1,125.8,135.1,124.7,138.6L129.2,137.8zM109,132.3C101.2,133.8,101.6,129,91.1,124.6C102.3,127.2,100.5,131.4,109,132.3zM130.6,123.1C138.4,130.7,141.1,131.4,141.1,131.4C140.7,131.4,131.7,128.1,130.6,123.1zM151.9,112.3C157.5,112.3,158.4,116.1,158.4,116.1C157.9,116.1,153.4,112.3,151.9,112.3zM196.7,113.9C198.1,116.7,188.4,126.4,170.5,126.4C154.5,126.4,153.7,124.2,150.5,130.3C150.5,120.2,162.4,125.5,169.8,125.1C177.2,124.6,191.3,123.5,196.7,113.9zM196.7,113.9C196.7,112.3,203.2,113.2,205.2,108.8C207.3,104.5,209.7,101.4,212.9,101.4C212.9,101.4,206.1,104.9,206.1,109.5C206.8,111.9,208.6,113,211.3,114.5C214,116.1,222.3,118.3,222.3,118.3C222.3,118.3,215.8,118.9,210.4,115.4C205,111.9,206.8,111.3,203.9,112.8C201,114.3,197.6,115,196.7,113.9zM179,111C176.5,106.7,175.4,108.2,173.4,107.1C178.3,105.6,179,111,179,111zM197.6,100.7C196.3,99.9,189.1,96.6,180.4,102.3C190.9,99.4,195.2,99.2,197.6,100.7zM189.8,135.3C196.5,138,207.7,129.4,210.6,115.9C211.5,128.1,194.9,141.3,189.8,135.3zM216.6,123C214.8,141.7,203,145.4,193.1,138.7C203,143.6,212.9,140.5,216.6,123zM220.1,130.8C220.9,132.6,219.7,143.8,208.7,147.1C214,143.6,218.8,139.8,220.1,130.8zM178.6,32.4C177.9,36.9,178.6,36.9,181.7,40.6C184.7,44.3,190.6,46.9,196.1,49.5C201.6,52,212.7,54.1,214.1,57.6C215.6,61.1,215.6,62.7,215.6,62.7C215.6,62.7,224.4,67.6,223.5,85.6C223.5,85.6,228.8,88.6,230.3,94.6C231.7,100.5,229.7,101,231.4,102.6C233.1,104.3,233,104,233,103.2C233,102.3,233.3,97.9,235.1,96.7C236.9,95.4,240.9,93.9,244.1,96.1C244.1,96.1,238,94.7,235.8,97.5C234.2,99.7,233.9,100.7,234.4,105.8C234.9,110.9,237.3,116.5,235.1,122.6C233,128.7,230.5,128.2,230.5,128.2C230.5,128.2,233.7,127.2,234.4,121.5C235.1,115.9,233.7,105.1,231.9,104.4C230.1,103.7,229.7,103.9,227.6,106C225.4,108.1,220.6,108.1,220.6,108.1C220.6,108.1,228.5,106,229,102.1C229.6,98.2,230.5,91.8,223.5,87.2L221.8,86.3C221.8,86.3,224.4,71.8,216.3,64.4L213.1,64.1C213.1,64.1,216,62.6,213.1,58.1C210.7,54.6,204,54.3,195.3,50.4C185.1,45.9,178.4,39.6,177.9,39C177.3,38.5,173.2,39,173.2,39C173.2,39,178.2,38.4,178.6,32.4zM186.9,45.7C186.9,45.7,184.9,45.3,183.5,46.7C183.5,43.8,186.9,45.7,186.9,45.7zM199.2,33.6C204.3,35.9,210.4,43.8,215.6,48.1C220.8,52.5,219.3,53.9,222,58.3C222,58.3,222.9,52.7,215.7,46.9C211.1,43.2,204.6,33.6,199.2,33.6zM150.6,85.3C144.3,88.3,146.5,102.3,140.6,105.1C147.9,103.9,144.7,93.2,150.6,85.3zM141.5,91.4C128.4,92.3,131.2,103.5,126,109.8C128.2,105.4,128.7,94,135.5,91.9C139.7,90.7,141.5,91.4,141.5,91.4zM69.9,115.6C82.3,108.4,90.9,98.1,105.2,96.6C121.8,94.8,158.6,83.2,164.4,81.9C170.3,80.5,173.6,69.6,159.3,65.7C159.3,65.7,174.7,72.1,164.4,80.2C164.4,80.2,133.5,90.4,103.6,95.7C97.2,96.8,86.9,99.5,69.9,115.6zM166.9,79.5C168,82.8,170.7,83.9,170.7,83.9L166.9,79.5z" transform="translate(63.33,0.39)" id="shape34" fill="#ddc0ac"/></g></g><g transform="translate(482.32,618.65)" id="shape35"><text class="st5"><tspan y="15.6" x="2.7">Replace your text here!</tspan><tspan y="31.6" x="2.7">Replace your text here!</tspan><tspan y="47.6" x="2.7">Replace your text here!</tspan></text></g><g transform="translate(505.38,570.8)" id="shape36"><text class="st6"><tspan y="26.8" x="16.5" class="st7">TEXT</tspan></text></g></g></svg>